<?xml version="1.0" standalone="no"?>
<!DOCTYPE svg PUBLIC "-//W3C//DTD SVG 20010904//EN"
 "http://www.w3.org/TR/2001/REC-SVG-20010904/DTD/svg10.dtd">
<svg version="1.0" xmlns="http://www.w3.org/2000/svg"
 width="512.000000pt" height="512.000000pt" viewBox="0 0 512.000000 512.000000"
 preserveAspectRatio="xMidYMid meet">

<g transform="translate(0.000000,512.000000) scale(0.100000,-0.100000)"
fill="#000000" stroke="none">
<path d="M1705 5106 c-16 -8 -258 -243 -537 -522 -432 -434 -508 -514 -513
-544 -3 -19 -4 -852 -3 -1850 3 -1749 4 -1817 22 -1864 59 -152 150 -243 302
-302 47 -18 108 -19 1549 -22 941 -2 1524 1 1563 7 130 20 257 106 326 219 71
119 66 -73 66 2332 0 2405 5 2213 -66 2332 -68 111 -194 198 -320 218 -36 6
-517 10 -1209 10 -947 -1 -1155 -3 -1180 -14z m2381 -305 c23 -10 52 -34 65
-52 l24 -34 0 -2155 0 -2155 -24 -34 c-13 -18 -42 -42 -65 -52 -39 -18 -99
-19 -1519 -19 -1233 0 -1483 2 -1510 14 -39 16 -82 61 -96 99 -8 20 -11 531
-11 1657 l0 1629 383 3 c373 3 383 4 440 26 117 48 221 152 269 270 22 56 23
66 26 440 l3 382 987 0 c941 0 989 -1 1028 -19z m-2316 -365 c0 -319 0 -323
-23 -357 -12 -18 -38 -44 -56 -56 -34 -23 -37 -23 -360 -23 l-326 0 380 380
c209 209 381 380 382 380 2 0 3 -146 3 -324z"/>
<path d="M3290 3328 c-47 -33 -72 -83 -67 -136 5 -45 22 -73 112 -182 100
-120 172 -260 219 -424 37 -126 48 -204 48 -346 1 -313 -102 -586 -313 -832
-36 -42 -60 -80 -64 -102 -18 -96 48 -176 145 -176 59 0 92 21 163 105 450
527 495 1285 111 1861 -68 104 -169 221 -206 240 -42 22 -110 18 -148 -8z"/>
<path d="M2510 3179 c-13 -6 -162 -113 -331 -240 l-306 -229 -155 0 c-181 0
-233 -12 -307 -70 -35 -28 -59 -58 -83 -107 l-33 -68 -3 -229 c-4 -233 4 -320
35 -379 25 -49 85 -108 137 -135 48 -25 60 -27 236 -32 l185 -5 290 -181 c160
-100 304 -189 322 -198 71 -36 164 -9 201 57 16 30 17 96 17 878 l0 845 -25
37 c-40 60 -114 82 -180 56z m-94 -1466 c-2 -2 -97 55 -212 127 -115 72 -224
135 -244 140 -19 5 -110 10 -203 10 l-167 0 2 208 3 207 195 6 c107 3 195 6
196 7 0 1 97 74 215 163 l214 160 3 -512 c1 -282 0 -514 -2 -516z"/>
<path d="M2984 2830 c-47 -24 -84 -81 -84 -132 0 -21 16 -61 43 -109 87 -152
113 -253 104 -393 -6 -100 -34 -187 -94 -289 -53 -91 -63 -139 -38 -191 35
-74 121 -105 196 -70 67 30 156 177 206 341 24 80 26 103 27 248 0 134 -4 173
-22 239 -39 142 -142 324 -201 355 -41 22 -95 23 -137 1z"/>
</g>
</svg>
